<svg xmlns="http://www.w3.org/2000/svg" viewBox="0 0 512 512" role="img" aria-labelledby="title desc">
  <title id="title">榊収穫管理</title>
  <desc id="desc">深緑の剪定ばさみを描いたアプリアイコン</desc>
  <rect width="512" height="512" fill="#f7f4e8"/>
  <circle cx="256" cy="256" r="190" fill="#e7efe7"/>
  <path d="M246 260 371 116c18-21 42-30 64-27-3 25-15 49-36 68L286 278Z" fill="#f8faf8" stroke="#1f5b3a" stroke-width="18" stroke-linejoin="round"/>
  <path d="M267 275 402 202c17-9 34-12 50-9-8 22-23 40-45 52l-119 64Z" fill="#a9b9ac" stroke="#1f5b3a" stroke-width="18" stroke-linejoin="round"/>
  <circle cx="263" cy="286" r="28" fill="#f2c75c" stroke="#173f2b" stroke-width="16"/>
  <path d="M247 307 173 422c-15 23-46 29-68 14s-27-46-11-68l98-103Z" fill="#1f5b3a" stroke="#173f2b" stroke-width="18" stroke-linejoin="round"/>
  <path d="m280 306 44 126c9 26 38 39 63 29 25-10 37-39 26-64l-77-116Z" fill="#2f7d4e" stroke="#173f2b" stroke-width="18" stroke-linejoin="round"/>
  <path d="M121 384c14-19 35-24 53-12 18 12 21 33 8 53" fill="none" stroke="#f7f4e8" stroke-width="17" stroke-linecap="round"/>
  <path d="M343 393c20-9 40-1 49 18 9 20 1 39-19 49" fill="none" stroke="#f7f4e8" stroke-width="17" stroke-linecap="round"/>
</svg>
